<svg width="15" height="15" viewBox="0 0 15 15" fill="none" xmlns="http://www.w3.org/2000/svg">
<path d="M2.22656 7.03125C2.5811 7.03125 2.90199 6.889 3.13911 6.66058L4.43996 7.31094C4.43344 7.36393 4.42383 7.416 4.42383 7.4707C4.42383 8.19763 5.01526 8.78906 5.74219 8.78906C6.46912 8.78906 7.06055 8.19763 7.06055 7.4707C7.06055 7.2678 7.01065 7.07783 6.92837 6.90594L8.69305 5.14126C8.86494 5.22354 9.05491 5.27344 9.25781 5.27344C9.98474 5.27344 10.5762 4.68201 10.5762 3.95508C10.5762 3.81821 10.5493 3.68877 10.5104 3.56461L12.0436 2.41493C12.2528 2.55466 12.5036 2.63672 12.7734 2.63672C13.5004 2.63672 14.0918 2.04529 14.0918 1.31836C14.0918 0.591431 13.5004 0 12.7734 0C12.0465 0 11.4551 0.591431 11.4551 1.31836C11.4551 1.45523 11.482 1.58466 11.5209 1.70883L9.9876 2.85851C9.7784 2.71877 9.52766 2.63672 9.25781 2.63672C8.53088 2.63672 7.93945 3.22815 7.93945 3.95508C7.93945 4.15798 7.98935 4.34795 8.07163 4.51984L6.30695 6.28452C6.13506 6.20224 5.94509 6.15234 5.74219 6.15234C5.38765 6.15234 5.06676 6.29459 4.82964 6.52302L3.52879 5.87265C3.53531 5.81966 3.54492 5.76759 3.54492 5.71289C3.54492 4.98596 2.95349 4.39453 2.22656 4.39453C1.49963 4.39453 0.908203 4.98596 0.908203 5.71289C0.908203 6.43982 1.49963 7.03125 2.22656 7.03125Z" fill="black"/>
<path d="M14.5605 14.1211H14.0918V4.83398C14.0918 4.59114 13.8952 4.39453 13.6523 4.39453H11.8945C11.6517 4.39453 11.4551 4.59114 11.4551 4.83398V14.1211H10.5762V7.4707C10.5762 7.22786 10.3796 7.03125 10.1367 7.03125H8.37891C8.13606 7.03125 7.93945 7.22786 7.93945 7.4707V14.1211H7.06055V10.9863C7.06055 10.7435 6.86394 10.5469 6.62109 10.5469H4.86328C4.62044 10.5469 4.42383 10.7435 4.42383 10.9863V14.1211H3.54492V9.22852C3.54492 8.98567 3.34831 8.78906 3.10547 8.78906H1.34766C1.10481 8.78906 0.908203 8.98567 0.908203 9.22852V14.1211H0.439453C0.19661 14.1211 0 14.3177 0 14.5605C0 14.8034 0.19661 15 0.439453 15H14.5605C14.8034 15 15 14.8034 15 14.5605C15 14.3177 14.8034 14.1211 14.5605 14.1211Z" fill="black"/>
</svg>
