<svg width="19" height="19" viewBox="0 0 19 19" fill="none" xmlns="http://www.w3.org/2000/svg">
<path d="M1.1875 6.82812H10.6875C10.7662 6.82812 10.8417 6.79685 10.8974 6.74117C10.9531 6.6855 10.9844 6.60999 10.9844 6.53125V5.34375C10.9844 5.26501 10.9531 5.1895 10.8974 5.13383C10.8417 5.07815 10.7662 5.04688 10.6875 5.04688H1.1875C1.10876 5.04688 1.03325 5.07815 0.977578 5.13383C0.921903 5.1895 0.890625 5.26501 0.890625 5.34375V6.53125C0.890625 6.60999 0.921903 6.6855 0.977578 6.74117C1.03325 6.79685 1.10876 6.82812 1.1875 6.82812Z" fill="black"/>
<path d="M10.0566 13.9531C9.88586 13.4768 9.798 12.9748 9.79688 12.4688C9.79688 12.3684 9.80548 12.2704 9.81202 12.1719H1.1875C1.10876 12.1719 1.03325 12.2032 0.977578 12.2588C0.921903 12.3145 0.890625 12.39 0.890625 12.4688V13.6562C0.890625 13.735 0.921903 13.8105 0.977578 13.8662C1.03325 13.9218 1.10876 13.9531 1.1875 13.9531H10.0566Z" fill="black"/>
<path d="M2.07812 4.45312H11.5781C11.6569 4.45312 11.7324 4.42185 11.788 4.36617C11.8437 4.3105 11.875 4.23499 11.875 4.15625V2.96875C11.875 2.89001 11.8437 2.8145 11.788 2.75883C11.7324 2.70315 11.6569 2.67188 11.5781 2.67188H2.07812C1.99939 2.67188 1.92388 2.70315 1.8682 2.75883C1.81253 2.8145 1.78125 2.89001 1.78125 2.96875V4.15625C1.78125 4.23499 1.81253 4.3105 1.8682 4.36617C1.92388 4.42185 1.99939 4.45312 2.07812 4.45312Z" fill="black"/>
<path d="M3.26562 10.0938V11.2812C3.26562 11.36 3.2969 11.4355 3.35258 11.4912C3.40825 11.5468 3.48376 11.5781 3.5625 11.5781H9.88594C10.0197 10.9315 10.2962 10.323 10.6952 9.79688H3.5625C3.48376 9.79688 3.40825 9.82815 3.35258 9.88383C3.2969 9.9395 3.26562 10.015 3.26562 10.0938Z" fill="black"/>
<path d="M10.3146 14.5469H2.07812C1.99939 14.5469 1.92388 14.5782 1.8682 14.6338C1.81253 14.6895 1.78125 14.765 1.78125 14.8438V16.0312C1.78125 16.11 1.81253 16.1855 1.8682 16.2412C1.92388 16.2968 1.99939 16.3281 2.07812 16.3281H11.5781C11.6262 16.3275 11.6734 16.3151 11.7155 16.2919C11.7577 16.2688 11.7935 16.2357 11.8198 16.1954C11.187 15.7818 10.6691 15.2146 10.3146 14.5469Z" fill="black"/>
<path d="M11.875 8.70853V7.71875C11.875 7.64001 11.8437 7.5645 11.788 7.50883C11.7324 7.45315 11.6569 7.42188 11.5781 7.42188H2.07812C1.99939 7.42188 1.92388 7.45315 1.8682 7.50883C1.81253 7.5645 1.78125 7.64001 1.78125 7.71875V8.90625C1.78125 8.98499 1.81253 9.0605 1.8682 9.11617C1.92388 9.17185 1.99939 9.20312 2.07812 9.20312H11.2326C11.4313 9.01912 11.6463 8.85357 11.875 8.70853Z" fill="black"/>
<path d="M14.9922 11.2812H13.6562V12.1719H14.9922C15.1103 12.1719 15.2236 12.125 15.3071 12.0414C15.3906 11.9579 15.4375 11.8447 15.4375 11.7266C15.4375 11.6085 15.3906 11.4952 15.3071 11.4117C15.2236 11.3282 15.1103 11.2812 14.9922 11.2812Z" fill="black"/>
<path d="M14.25 8.60938C13.4867 8.60937 12.7405 8.83572 12.1058 9.2598C11.4712 9.68387 10.9765 10.2866 10.6844 10.9918C10.3923 11.697 10.3159 12.473 10.4648 13.2217C10.6137 13.9703 10.9813 14.658 11.521 15.1977C12.0608 15.7375 12.7484 16.105 13.4971 16.254C14.2457 16.4029 15.0217 16.3264 15.7269 16.0343C16.4321 15.7422 17.0349 15.2476 17.4589 14.6129C17.883 13.9782 18.1094 13.2321 18.1094 12.4687C18.1082 11.4455 17.7012 10.4646 16.9777 9.74106C16.2542 9.01754 15.2732 8.61055 14.25 8.60938ZM14.25 15.7344C13.6041 15.7344 12.9727 15.5428 12.4357 15.184C11.8987 14.8252 11.4801 14.3152 11.233 13.7184C10.9858 13.1217 10.9211 12.4651 11.0471 11.8317C11.1731 11.1982 11.4841 10.6163 11.9409 10.1596C12.3976 9.7029 12.9794 9.39188 13.6129 9.26587C14.2464 9.13987 14.903 9.20454 15.4997 9.4517C16.0964 9.69887 16.6064 10.1174 16.9653 10.6545C17.3241 11.1915 17.5156 11.8229 17.5156 12.4687C17.5146 13.3345 17.1702 14.1646 16.558 14.7768C15.9458 15.389 15.1158 15.7333 14.25 15.7344Z" fill="black"/>
<path d="M14.25 9.79688C13.7216 9.79687 13.205 9.95358 12.7656 10.2472C12.3262 10.5408 11.9837 10.958 11.7815 11.4463C11.5793 11.9345 11.5264 12.4717 11.6295 12.99C11.7326 13.5083 11.987 13.9844 12.3607 14.3581C12.7344 14.7317 13.2105 14.9862 13.7287 15.0893C14.247 15.1924 14.7843 15.1395 15.2725 14.9372C15.7607 14.735 16.178 14.3926 16.4716 13.9532C16.7652 13.5138 16.9219 12.9972 16.9219 12.4688C16.9211 11.7604 16.6393 11.0812 16.1384 10.5803C15.6375 10.0794 14.9584 9.79766 14.25 9.79688ZM16.0313 13.2109C16.0305 13.4601 15.9402 13.7007 15.7766 13.8888C15.6131 14.0768 15.3873 14.1996 15.1406 14.2349V14.8438H14.5469V14.25H14.25V14.8438H13.6563V14.25H12.7656V13.6562H13.0625V11.2812H12.7656V10.6875H13.6563V10.0938H14.25V10.6875H14.5469V10.0938H15.1406V10.7026C15.3323 10.7296 15.5125 10.8098 15.6609 10.934C15.8093 11.0583 15.9199 11.2216 15.98 11.4056C16.0402 11.5895 16.0477 11.7866 16.0015 11.9746C15.9552 12.1625 15.8573 12.3337 15.7186 12.4688C15.8177 12.5653 15.8964 12.6807 15.9501 12.8082C16.0038 12.9357 16.0314 13.0726 16.0313 13.2109Z" fill="black"/>
<path d="M14.9922 12.7656H13.6562V13.6562H14.9922C15.1103 13.6562 15.2236 13.6093 15.3071 13.5258C15.3906 13.4423 15.4375 13.329 15.4375 13.2109C15.4375 13.0928 15.3906 12.9796 15.3071 12.8961C15.2236 12.8125 15.1103 12.7656 14.9922 12.7656Z" fill="black"/>
</svg>
